<svg xmlns="http://www.w3.org/2000/svg" viewBox="0 0 282.74 282.74">
<defs>
	<style>
		.cls-1,.cls-2,.cls-3,.cls-5,.cls-6,.cls-7,.cls-8,.cls-9{fill:none;}
		.cls-1,.cls-2{stroke:#cdcfd0;stroke-width:0.32px;}
		.cls-1,.cls-2,.cls-6,.cls-7,.cls-8,.cls-9{stroke-linecap:round;}
		.cls-1,.cls-2,.cls-6,.cls-7,.cls-9{stroke-linejoin:round;}
		.cls-2{fill-rule:evenodd;}
		.cls-4{fill:#009db1;opacity:0.1;}
		.cls-5{stroke:#99d8e0;stroke-width:0.5px;}
		.cls-5,.cls-8{stroke-miterlimit:10;}
		.cls-6,.cls-7,.cls-8{stroke:#009db1;}
		.cls-6,.cls-7{stroke-width:5px;;transform: scale(0.15);transform-origin: center center;animation: pulse-me 2s linear infinite;}
		.cls-6{stroke-dasharray:0.01 25;}
		.cls-7{stroke-dasharray:0.01 28;}
		.cls-8{stroke-width:3.5px;stroke-dasharray:0.01 106 0.01 160 0.01 121;}
		.cls-9{stroke:#029cb1;stroke-width:1.75px;stroke-dasharray:0.01 4.5;transform: scale(0.15);transform-origin: center center;animation: pulse-me 5s linear infinite;}
		.cls-6-no-anima,.cls-7-no-anima{fill:none;stroke-linecap:round;stroke-linejoin:round;stroke-linecap:round;stroke:#009db1;stroke-width:5px;}
		.cls-6-no-anima{stroke-dasharray:0.01 25;}
		.cls-7-no-anima{stroke-dasharray:0.01 28;}
		.cls-8-no-anima{fill:none;stroke-linecap:round;stroke-linejoin:round;stroke-linecap:round;stroke-width:3.5px;stroke-dasharray:0.01 106 0.01 160 0.01 121}
		.cls-8-no-anima{stroke-dasharray:0.01 106 0.01 160 0.01 121;}
		.cls-9-no-anima{fill:none;stroke-linecap:round;stroke-linejoin:round;stroke-linecap:round;stroke:#029cb1;stroke-width:1.75px;stroke-dasharray:0.01 4.5}
		.cls-9-no-anima{stroke-dasharray:0.01 4.5;}

		@keyframes pulse-me {
		  0% {
		    transform: scale(0.5);
		    opacity: 0;
		  }
		  50% {
		    opacity: 0.1;
		  }
		  70% {
		    opacity: 0.09;
		  }
		  100% {
		    transform: scale(3);
		    opacity: 0;
		  }
		}
	</style>
</defs>
<g id="Ebene_2" data-name="Ebene 2">
	<g id="Working_area" data-name="Working area"><path class="cls-1" d="M64.92,223A112,112,0,0,1,60,64.63l0,0a112,112,0,0,1,158.31-5l0,0a112,112,0,0,1,5,158.33h0a112,112,0,0,1-158.32,5Z"/>
	<path class="cls-2" d="M201.76,55.7s0,.06.08.09S201.73,55.74,201.76,55.7Zm8.5,6.23s0,.06.08.09S210.26,62,210.26,61.93Zm6.54,1c-.27.15-.55.32-.78.47.11,1.38,1.33,2.15-.83,1.14-.74.13-1.45.21-2.15.28.55.33,1.14.64,1.73.95a2.34,2.34,0,0,1-1.49-.37c-.08,0-.71-.3-.79-.34a1.4,1.4,0,0,1-.94-.92c-.43-1.1.27,0-.79-1.95,3.37.57,2,1.45,6,.75ZM188.47,76.64s.05.06.08.09S188.44,76.67,188.47,76.64Zm-.5,1.1c.27-.28,1,.47.27.15C188.24,77.89,187.57,78.23,188,77.74ZM218.8,92.49c-1,.21-1.88.47-2.78.68-.24-1.26.31-1.48,2-1.84a12,12,0,0,0,1.3-.19c-.08,0-.16,0-.2.09,0,.25-.11-.18-.35.34-.42.87.05-.3.05.92Zm-6,.78c.39.58.82,1.14,1.25,1.72,2.08.06,1.84-.88,3.18-.92,1.64-.06.19.09,2.66,1.39a14.07,14.07,0,0,1,4.19,4.19c-2.31,1-.63.54-3.53.54a12.5,12.5,0,0,1-2.89-1.1l-.51-.23c-3.72-1.78-4.86,2-8,.19-.94-.53-.24.09-.67-.68a1.41,1.41,0,0,1-.19-.34c-.16-.54-.08,0-.08-.54a2.87,2.87,0,0,1,.24-.9q.12-.14.24-.3c1.4-2.53,1.1-.92,1.37-2.84.11-.9.35-1,1-1.87,1.38.48-.11.54,2.74.67-.63.87-.42.17-1,1Zm21,2.59c-1.88-.83.94.45-1-.87.11,1.71,2,2.78,3.49,4,0,2.8.24.8.71,2.76.31,1,.66,2,1,3,.79-.52.56-.47,1.3,2.89-2.78.16-2.78.49-4.54-1-2.16-1.91-1.25-2.27-1.18-2.83s.24-.49,1.22-1.19c-.82-1.33-.63-.37-1.57-1.35a35.06,35.06,0,0,1-3.68-5.44c.79-1.69-.19-.79,1-1.61.67-.47,1.33-.92,2-1.37,1-.54,1.69-.21,3.29,0,0,3.88-1.33,0-2,3Zm3.53,4.22c1.17.17.39-.13,1,.6,0,0,.71,1.07.74,1.14-1.56-.11-1.75,0-1.75-1.74Zm-29.31.13c.27-.19,0-.13.55-.19a7.34,7.34,0,0,1,.94,0c-.63.92-.43.54-1.48.21Zm-4-.21s0,.06.08.09S204,100,204,100Zm1.76.36c.27-.28,1,.52.27.18C206,100.54,205.36,100.82,205.75,100.36Zm-3,.69-.51-.36A5.63,5.63,0,0,0,202.78,101.05Zm4,1.86s0,.06.07.09S206.74,102.94,206.78,102.91Zm-6.51.77c0-.73.4,0,.12,0S200.27,104.27,200.27,103.68Zm15,15.1a.31.31,0,0,0,.08.1S215.28,118.79,215.28,118.78Zm1.25,2.18c.05,0,.08-.09.12,0s.08,0,.08,0c.5-.15,1-.28,1.56-.45.32,1.35.9,1.29,1.33,2.68,0,.13.2.77.24.83a.75.75,0,0,0,.19.34l.12.15.11.15c1.25,1.63-.08.4,1.84,2.41s.55,2.51,1.41,4.46c1.17,2.63.82-.39,2.66,3.74.5,1.12,2.07,2.45,2,4.16-.08,2.12.07.3.07,2.77,0,2.65.08-1.29.75,1.88a5.45,5.45,0,0,1-1.17-1.18c-1.53-1.74-.71-1-2.24-2.18-2.89-2.25-1-3.79-2.78-5.08-1.14-.86-1.22-.92-1.37-2.25-.24-1.52.15-1.73-.43-3s-1.69-1.92-1.88-2.87.43-.1-.4-1.54a34.51,34.51,0,0,1-2.27-4.94ZM133.12,42.73s-.15,0-.15.09-1.41.29-1.61.32A3,3,0,0,1,133.12,42.73Zm-1.76.41c-.28.22-.51.43-.75.59C131,43,130.5,43.41,131.36,43.14Zm-19.79,3.6c0-.69.39-.11.16,0l0,0C111.57,46.75,111.57,47.36,111.57,46.74Zm-3.49,2.37c.24-.3.94.32.28.1C108.36,49.21,107.65,49.62,108.08,49.11Zm55.84-4.5v.83c-.87-.06-.71,0-1.25-.53A6.54,6.54,0,0,1,163.92,44.61Zm-56.34,5.12c-.24.37-.32.64-.86.83-.94.33-.43.24-.9-.58,1.29-.53.43-.21,1.76-.25Zm2-.28s.05,0,.08,0S109.54,49.48,109.57,49.45Zm11.52-1.37c.32-.34,1.41.36.32.07C121.36,48.15,120.66,48.62,121.09,48.08ZM95,53.13s0,0,.08,0S95,53.16,95,53.13Zm17-1.34c-1.18-.09-2.36-.22-3.53-.33a11.81,11.81,0,0,1,2.94-.29c1,.28.27-.2.59.62Zm-7.76.56c1.92-.61,2.74-1.05,4-.3C107.23,52.18,105.38,52.86,104.32,52.35Zm-7,2.75c.59-.32.2-.21,1-.13-.63.58.48.3-.5.37s.27.25-.48-.24Zm6.27.77s0,.05,0,.05S103.54,55.9,103.58,55.87ZM103.07,57c-.43.1-.35-.76,0-.35,0,0,0,.07,0,.07S103.26,56.94,103.07,57Zm5.49-1.25s0,.06.08.09S108.56,55.77,108.56,55.74Zm.78-.1a.09.09,0,0,0,0,.09S109.3,55.68,109.34,55.64ZM73.76,61.93s0,0,.08,0S73.72,61.93,73.76,61.93ZM92,59.71c.23-.13.51-.24.79-.39C92.53,59.6,92.69,59.62,92,59.71Zm39.34-4.19s0,.06.08.08S131.36,55.56,131.36,55.52Zm.5.23s0,.06.08.09S131.83,55.8,131.86,55.75Zm24.06-2c.94.54.67.4,1.25,1.39C156.08,55,156,55.05,155.92,53.72ZM75.25,63.89a1.41,1.41,0,0,1,1,.06C75.63,64.1,75.63,64.08,75.25,63.89Zm56.11-6.44c.07-.15.19-.36.31-.56C131.56,57.08,131.43,57.3,131.36,57.45Zm-50.86,7s0,.06.08.06S80.5,64.47,80.5,64.45Zm5,.13c.66-.19,1.33-.4,2-.64a5.91,5.91,0,0,1-1.76,1.26c-.9.28,0-.1-1.17.14-1.8.47-.67.51-2.82.14,1.06-.87.59-.66,2.78-.72.24-.58.48-1.11.75-1.67.86.79.43.23.23,1.49ZM77,66.85a2.07,2.07,0,0,1-.27-.45c-1.76.41-3.53.8-5.25,1.16.66-.52,1.33-1,2-1.59v1c1.33-.23,1.61-.49,2.55-.68s2.42-.1,1,.58ZM95.27,62c.28-.32,1,.26.32.06C95.55,62.07,94.88,62.5,95.27,62Zm-14,2.83a.07.07,0,0,0,.07.06S81.25,64.84,81.25,64.82Zm16-2.07c-.11.13-.19.21-.27.29ZM97,63c.4.64.24.52-.74.88v-.8c.24,0,.47,0,.74-.09Zm-8.5,2s0,.06.08.08S88.49,65.1,88.53,65.06Zm8,.4c0-.47,1-.34.35,0h-.12c-.23,0-.23.54-.23,0Zm14.53,2.06s0,.06.08.08S111.05,67.54,111.05,67.52Zm-8.73,21.12a5.81,5.81,0,0,0-.55.2A4.94,4.94,0,0,1,102.32,88.64Zm-1.53.64c.35-.3-.51-.22.74-.32C101.26,89.24,101.85,89.11,100.79,89.28ZM39.9,97.44c.32.21.27.19.51.56C39.59,97.87,40.09,98.34,39.9,97.44ZM100,89.61s0,.08.08.1S100,89.65,100,89.61ZM74.23,94.76a3,3,0,0,1-.51.19c1.68-1.3,3.33-1.45,4.86-2.6.9-.69.66-.71,2.66.63-.94.73-1.84,1.41-2.74,2.08-.82-.52-.63-1.1-2-.54-1.64.67-.85.63-2.27.24Zm.51,7.45a1,1,0,0,1,.15-.62c.75-2.4,1.38-2.34,1.76-3.15,1.14-2.25-.66-.77,3.33-2.79-.35,1.4-1.38.88-2.74,3-.79,1.22-.27,3.13-2.51,3.51ZM81,95.83c1-.24,0,0,.55-.24s0-.06.32-.13A.23.23,0,0,1,82,95.4s.11,0,.15,0c3.21-.52,2.79.87,2.82,1.82-.43-.37-.87-.76-1.25-1.14a9.31,9.31,0,0,1-2,3.51V99.4a2.9,2.9,0,0,1-.07-.6.27.27,0,0,1,0-.15c0-.33-.08-.67-.11-1,0,0,0-.13,0-.15.16-.34.32-.66.47-1-.85-.37-.47,0-1-.64Zm19.28.09c.08-.28.16-.54.27-.82a6.93,6.93,0,0,1,1.49-.36,3.49,3.49,0,0,1-1.76,1.18Zm-12.5,2.8c-.85,0-1.68,0-2.51,0a25.42,25.42,0,0,0,3.49-1.14c-.16.62-.24,1.07-1,1.16ZM84,100.09c.27-.28.94.33.27.13C84.29,100.22,83.58,100.56,84,100.09ZM80.26,102c1.21-1.2,1.49-1.09,3.25-1.56v.51C81.6,101.14,82.14,101.8,80.26,102Zm-.51-.44s0,0,.08,0S79.71,101.57,79.75,101.53Zm6,5.09a.06.06,0,0,0,0,.06S85.74,106.64,85.78,106.62Zm-.79,3.9s0,0,.08.06S85,110.53,85,110.52ZM66.74,120v.24a2.11,2.11,0,0,1,.27-.76C66.89,119.7,66.82,119.87,66.74,120Zm-2.28,23s0,.06.08.06S64.43,143.07,64.46,143.06Zm19.79,4.32h.51c.19.81.35.83,0,1.57C83.62,148.07,84.28,148.35,84.25,147.38Zm28.33,64.67c0-.71.39,0,.11,0S112.58,212.63,112.58,212.05Zm-7,3.42a.12.12,0,0,0,.08.11C105.6,215.56,105.53,215.49,105.57,215.47Zm-13,14s0,0,.08.06S92.52,229.45,92.52,229.43Zm3,10.15c0-.11,1.14-.28.31.08h-.07c-.12-.05-.32.51-.24-.06ZM102,242c.27-.24.95.59.27.19C102.31,242.23,101.6,242.4,102,242Zm-2.23.38a.14.14,0,0,0,0,.11S99.77,242.46,99.81,242.42Zm1,.19s0,.06.08.09S100.79,242.66,100.79,242.61Zm.74.91c.27-.2,1,.62.27.21C101.8,243.73,101.14,243.87,101.53,243.52Zm134.54-59.88c-2,.19-.51.34-1.72,2.27-1,1.54-3.53,2-4,2.59-.27.71-.5,1.43-.74,2.16,0,1.73.79,2.93.27,4.28-.47,1.2-1.77,1.92-1.37,3.61s.15.22.35,2.3a2.12,2.12,0,0,0,.82,1.77c1.22.92,1.76.24,3.68-.38,0-.58,2.9-9.21,3.29-10.64a5.8,5.8,0,0,1,.51-1.87c.35-.77.4.13.19-1.69l.24-.06s.08,0,.11-.09.08,0,.08,0c1.14-1-.15-4.18-.66-6.13-.19,0-.35,0-.51.05-.31.9-.51.44-.51,1.86ZM170.68,76.13c.31-.14.16-.63.51.57-.2.07.31.77-.43-.1-.82-1,.16,0-.08-.47ZM76.26,57.67a13.7,13.7,0,0,1,5.48.68c1.81-.32,3.18-1.17,4.7-1.57a25,25,0,0,0,5.1-1.39c-.59-1.35.19.49-.67-.47,0-.21-.08-.45-.11-.67l-1.53.54c.08-.34.15-.68.27-1.07-4,1.29-2.36,1.37-3.48,2-1.49.83.7-2.34-2.63-1.46-.74.22-.71.11-1.49.39-1.53.66-3.05,1.3-4.54,1.92-1.06.48-.87,0-1.09,1.1Zm8-3.13c0,.05,0,.06.08.09S84.25,54.59,84.25,54.54Zm-.51.37s0,0,.08.06S83.74,55,83.74,54.91Zm108.48-11-4-.43c0,.19,0,.77,0,.83a.27.27,0,0,1,0,.17,6.6,6.6,0,0,0-.28.64c.91.24,1.84.48,2.79.69.31,1.52,1,1.71,3.25,2.07.4-.75.83-1.48,1.25-2.21,1.73,1.78,2,2.27,4.75,1a6.83,6.83,0,0,0-1.57-.62c-.47-.21.08.06-.35-.19A11.45,11.45,0,0,1,197,45c1.06.1,1.78.22,2.32.25-1-.62-2.05-1.21-3.09-1.8a15.89,15.89,0,0,0-2.72.11c-2.11.26-.39.37-1.25.33Zm2.74.38c.28-.28,1,.54.28.15C195.24,44.46,194.57,44.76,195,44.31ZM154.65,63a9.26,9.26,0,0,0,1,.56v.84c1.41.14,2.81.34,4.27.47.63,0,.23-.15,1.25-.58.66-.25.86-.34,1.52-.56,1.53-.43,1.84-.56,2.47-1.76-.27-.56-.51-1.11-.74-1.64-1.14,0-1-.39-1.89-.11l-.94.52c-1.17.25-1.65-.71-3.69.81,0-.71.08-.49-.47-1.14s-2.23.49-2.47,1c-.55,1-.08,0,.08.75s.59-.62-.16.56a3.38,3.38,0,0,0-.23.32Zm1-1.13c.31-.35,1.41.43.31.1C155.94,61.9,155.2,62.31,155.63,61.82ZM84,134.58c-.08,0-.15,0-.15.11a.15.15,0,0,1-.2.06,1.1,1.1,0,0,1-.31.15c-1.1.3-.2-.4-1.6,1a5.5,5.5,0,0,0,1.88.15c.74.09.82.6,2.39.6.74-2.08,4.22.1,3.64-1.74-.16-.56-2-1.52-2.36-1.64a1.93,1.93,0,0,0-1-.13c-1.37.1-.43.29-2.31-.33-.78,1.22-.15.54,0,1.8Zm23.55-75.22c-.35-.22-.35,0,0-.3A.74.74,0,0,0,107.55,59.36Zm.08.49a2.64,2.64,0,0,1-.08-.49C108.22,59.77,108.3,59.49,107.63,59.85Zm.35.51a1.09,1.09,0,0,1,.08-.28C108.81,60.23,108.65,60.1,108,60.36Zm.35.48c-.31.47-.11.36-.27-.18A.71.71,0,0,0,108.33,60.84Zm-2.23-1.05c.24.29.32.25-.08.28A.8.8,0,0,1,106.1,59.79Zm3.64.92c-.19.17-.35.34-.51.49C109.39,61.05,109.55,60.87,109.74,60.71Zm76,35.64c.16.88.32,1.69.51,2.53-.55.24,0,.13-.43,0-.19-.09-.39-.19-.58-.3,0,1.05.07,2.1.15,3.13.12.86.16.75,1.84.23,0-2.87.59-.75-.23-3.34a.76.76,0,0,1-.08-.32c0-.82,0-1.65.08-2.49-.91.26-.35.26-1.26.54ZM85.77,53.21v.52c1.1-.24,1.38.71,3.33-.34a7.71,7.71,0,0,0,2.66-2.21,8.82,8.82,0,0,0-3.45,1.1c-.16.1-.32.25-.47.34s-.12.06-.2.06c-1.29.59,1.06-.22-.35.13-.85.24.4-.15-.7.11l-.83.29Zm9-2.41c.5.64.31.17,1.48,1,2.67-1.71-.62.41,3.26-1.49-3-.92-3.1-1.29-4.08-.24-.08,0-.11.09-.16.13-.55.62.12.19-.5.58ZM106,93.13l.51-.28C106.35,93.62,106.73,93.41,106,93.13Zm-1.49.44c0-1.09.43-.13.51,0A2.33,2.33,0,0,1,104.54,93.57Zm-.74-1.63c0,.43.08.28-.43.3C103.48,92.15,103.64,92.05,103.8,91.94Zm99.72,16.85c1.68.83,1,.65,3.48.43v-.81a3.57,3.57,0,0,1-2-.28c-.51-.13-1-.28-1.45-.43v1.09Zm10.26.67a1.2,1.2,0,0,0,1.73.57c.63-.32.47-.23.86-1,.12-.28.27-.56.43-.87-2.31,1.14-1.77-.53-3,1.29Zm-12.54-37c-.43-.29-.32-.1.19-.23A.59.59,0,0,0,201.24,72.5ZM200.73,74c-.35-1,.12-.9,1.18-.9a3,3,0,0,1,.35,1.64c-1-.15-.43-.09-.95-.38-.19-.13-.39-.26-.59-.37Zm-110,62.21a10,10,0,0,0,2.78-.37c-.15-.62,0-.87-2-.94-.83,0-.79.47-.79,1.3ZM78,126.35v.52c.55.17.48-.41.75,1.21h.78c0-.6,0-1.21,0-1.83.16-.15.32-.33.51-.48-.51-.06-1-.13-1.49-.21-.11,1.26.27.56-.51.8Zm126.36-21.92c.58.28.19-.33.66.57-.43-.13-.08.13-.39-.15s-.08,0-.24-.42Zm1.68,2-.32-.06.32-.24v.3ZM93,80.36c.71-.25,1.33-.53,2-.78-.08-1.1-.19-1.2-1.25-1.14-.35,1.41-.63.36-.75,1.92Zm1.49-8.84c.71-.47.83-.28,1.61-.7s1-.45,1.18-1.26c-1.65.21-2.43.57-2.79,2ZM78,123.36c.27.94.24.85,2,.15l-.24,1.28.74,0c-.08-.58-.15-1.16-.23-1.76a21.78,21.78,0,0,1-2.28.37ZM196.49,74.93a9.75,9.75,0,0,0,.75-1.88c-1.1,0-1.65.3-1.46,1.35v.17c.2.54-.42.18.71.37Zm-18.3,26.29c.67.21.48.28,1,.3s.79-.11.79-.52c0-1.79-1.49-.25-1.76.22ZM77,135.44c1,.34,2,.63,3,1C79,134.6,77.66,135.35,77,135.44ZM97.76,71.12c.23.22.51.45.79.71.27-1.15.07-.59,1-1.21a7.48,7.48,0,0,1-.55-.71A4.78,4.78,0,0,0,97.76,71.12Zm73.42-3.64c.08-.56.16-1.11.24-1.69-.82,0-1.22-.22-1.1.64.08.21.16.43.24.67.24.49-.51.23.63.38Zm5.25,2.38c.12-1.39.2-.32.51-1.64-.55.13-.9.1-1.14.72C175.49,69.76,175.88,69.7,176.43,69.86ZM71.7,130.51v1c1-.09,1-.09,1-1-.35,0-.71,0-1,0l1.54-.79c.39,1.41-.32.13,2.7,1.26,2.86,1.05,0,.86,2.78,1.39-.27.45-.51.86-.74,1.31a47.52,47.52,0,0,0,5-.6c-.74-1.11-.43-.49-1.68-1.3-3.25-2-2.11-1.57-2.89-2.12-.94-.62-.43.13-1.73-.45-3.52-1.58-4.5-.09-7.21,1.91,1.45-.13,1-.45,2.23-.6Zm29.08-61.34A11.55,11.55,0,0,0,102,69v-.8c-.82.11-1.22.05-1.25.92Zm-18,61.12c.86-.28.79-.28,1-1.31-.82.09-.47-.25-.86.3a8.44,8.44,0,0,1-.11,1Zm18.3-81.5c1.17-.21,1,.1,1.25-1C101.49,47.94,101.06,47.89,101.06,48.79ZM82.49,129.26c-.08-.49-.16-1-.24-1.52a4.1,4.1,0,0,0-.51,0c0,1.2,0,1,.75,1.5Zm2.51,1v.52l1.25,0c-.24-.88-.43-.83-1.25-.48Zm23.31,116.65,1.25.24v-.53c-.43-.09-.85-.18-1.25-.24ZM106.82,90.68v.82c.63-.28.43,0,1-1.16C107.3,90.64,107.53,90.53,106.82,90.68ZM81.51,126.22c.2.91.12.81.75,1.26a6.19,6.19,0,0,1-.24-1.29,4.61,4.61,0,0,1-.51,0c-.07-1-.11-1-1-1.22.39,1.5.55,0,.27,1.52.67-.22.19,0,.74-.29ZM192.23,77c.55.88-.16.45,1,.58-.28-.81-.28-.87-1-.58v-.81c.47-.13.94-.24,1.41-.34.94-.3.74-.24,1-.56.86-1,.48-1.39.08-3.21.59,0,1.18-.11,1.76-.18,0-.81.08-.77.48-1.63-1.06-.87,0-.28-2-1.54.16-2,.27-1.86.67-2.29.74-.88,2.35-1,2.86-1.73a1.17,1.17,0,0,0,.35-.83c.15-.8,0-.33.63-1.44.9.19,1.83.34,2.78.49-.27.28-.51.56-.74.81-1.26,1.46-1.65,1.41-3.29,1.65.19.59.27.24.35,1.2,0,.38.07.74.15,1.14a11.74,11.74,0,0,1,.27,2.69,5.3,5.3,0,0,1,1.49.39c.71.51,2.12-.22,2.79-.28l3,.51c-1.64.92-5-1-4.85,1-.4-.13-.79-.24-1.18-.39-.47.47,0,.21-.78.8a11.29,11.29,0,0,0,.31,1.14c0,.06.08.17.08.21A1.63,1.63,0,0,1,200,74c-.7-.13-.15-.23-.58.22-.32.3-.27.34-.35.71a7.23,7.23,0,0,0-.08,1c-.11,1.25-.16,1.68-2,2.36,0,0,.43-1.35-2.39-.3-.78.3-1.56.64-2.35,1a12.09,12.09,0,0,1-.51-1.15c-.94.3-1.83.56-2.74.81.48-1.35.12.58,1.26-1.92.78.4.9.28,2,.29ZM88.52,145.12c-.23-.92,0-.68-1-.77C88,145,87.67,144.88,88.52,145.12Zm20-72.78c.23,0,.51-.07.78-.09v-.8c-1,.68-.55,0-.78.88ZM95.77,74.71c.86-.58.47-.09,1-.9C96,74,95.81,73.91,95.77,74.71ZM30.94,123.9l.23,0v-.62H31Zm51.83,3.84a3.52,3.52,0,0,1,.5,0v-.75l-.5,0v.77ZM84.25,130c.24,0,.48,0,.75,0v-.54c-.27,0-.51,0-.75,0Zm3.26-68.12.74-.15V61.2l-.74.15Zm77.18-16.47V46a7.22,7.22,0,0,1-.79,0c.39-.62,0-.34.79-.58ZM83.27,131.26V132c.4-.41.82-.86,1.25-1.29-1.41.53,1.1-.49-.5.25-.43.22.58.19-.75.26ZM75,133.94h.75v-.53C75.32,133.51,75.08,133.45,75,133.94ZM104.77,62.1c.75-.3.4-.05.79-.64a6.31,6.31,0,0,0-.79.1ZM95,55.72c.74-.33.35,0,.74-.67-.27,0-.51.11-.74.15ZM90.75,84.33l.5-.06c-.15-.72,0-.38-.5-.71ZM42.4,132.38c.24,0,.51,0,.79,0-.39-.49-.08-.28-.79-.41v.45ZM208,108.72a1.77,1.77,0,0,0-.05-.54c-.11-.47-.07-.32-.23-.57-.24,1.19-.51.47.27,1.11ZM88.75,145.09c.79-.59.79-.19,0-.77Zm116-39c-.74.19-.31-.28-.51.54.67-.18.28.1.51-.54.16-.28.32-.53.47-.81a13.62,13.62,0,0,0,.78,1.15c.16-.17.32-.34.48-.53-.83-.39-.08.37-.79-.8-.47-.75-.16-.57-.94-1.11-.27-.28-.71-.21,0-1.45-1.69.32-.39.23-1.17-.49a1.15,1.15,0,0,1-.27-.21c-.59-.58-.19.68-.55-.8a1.14,1.14,0,0,0,1.37.06c.51-.29.47-.75.63-1.33.94.76.51,1,0,1.65,2-.11,1.22-.37,1.38.66,0,.06,0,.33,0,.39a1.5,1.5,0,0,0,0,.43c0,.32.05.1-.47.77.39.22.82.4,1.25.59a2.1,2.1,0,0,0-.74,1c.47,0,1-.1,1.49-.19,0,.06-.08.09-.08.19-.16.39-.27.79-.4,1.18.32.49.63,1,1,1.41.32-.43.67-.85,1-1.33.31.22.19.15.59.45s1.13,1.39,2.15-.37c2.78,1.78,2.62,1.5,4.51.41a4.68,4.68,0,0,1,1.53-.23c0,4.81.27,3.25-1.53,8.39a10.28,10.28,0,0,1-3.1-.71l-2.67,1.14c-.47,0-2.71-1.14-3.64-1.33a2.94,2.94,0,0,1-1.46-.39,17.43,17.43,0,0,1-2.15-1c-1.06-.77-2.51-1.3-3.13-.56-.39,1.16-.79,2.29-1.14,3.42-1.72.39-1.14-.3-2.66-1-.59-.24-1.14-.32-1.61-.49-1.29-.53-.31-.19-1.09-1.31-1-1.3-3.34-1-4.67-1.79-.51-.3-1-.56-1.49-.83l1.49-1.14c-.11-.45-.23-.9-.35-1.35-.31-.9-.86-.62-.39-1.56.16-.11.31-.26.51-.41V105c-2,.53-.2-.75-2.12-.4-.71.13-.55.32-1.3.49a2.94,2.94,0,0,1-1.29,0c-2.58.23-5.13.47-7.68.72a10.47,10.47,0,0,0-2.27,1.26c-1.68,1.14-2,.56-4.9.37V106c1.45-.15.27-.47,2-.56,2-.06,1.49,0,2.9-1.2a18.39,18.39,0,0,0,1.88-2.31c-.27-.39-.51-.75-.74-1.14a4.52,4.52,0,0,0,.9-.94c.93-1.18,2.27-1.61,3.6-2.3,0-2.22-.66-3.27,3-1.6,1.09-.73,2.2-1.45,3.29-2.19,1.6,1,1.41.79,1.22,2.83,1.17-.47.93-.3,2.15,1s2.55,1.82,3.68,2.89a4.68,4.68,0,0,1,1.22,1.75c-1.17,1.33-2.82.94-4.27,1.07v1.11c.87.09,2.55,1.24,3.48,1.69v-2.23c1.33,0,1.38-.51,2.28-1.3-.2-.77-.35-1.52-.51-2.27.43-.19,1.41.43,2,.67-.16-2.29-1.62-1.33-2.52-2.57l-.47-1.17c-1.8.45-1.88-.68-4.27-3.38.24-.64.47-1.26.74-1.92,1,.79.16.32.63,1s1,.72,1.29,1.24a.2.2,0,0,0,.08.13c.24.34,2.59,1.65,3.29,2.19.35.3.51.34.9.68s.71.53,1.06.82c0,1.28-.27,1.9.32,3a5.17,5.17,0,0,0,1.21,1.22c0,1.11-.51,1.69.32,2.25.39.32.55.21,1.06,1a4.85,4.85,0,0,0,1.29,1.29c.27.17-.19.49.51.11s.11-.8.31-1.5,0,.28.28-.77c.07,0,.15,0,.23,0,.32.47.67.94,1,1.4Zm14-46a7.27,7.27,0,0,1,.7,1.6,13.56,13.56,0,0,0,.63,1.33c-.59-.26-1.17-.48-1.76-.73-.82.52-.35.71-1.49.73.83-1.29.67-1.82-.74-2.53a12.69,12.69,0,0,0-1.57-.61A26.5,26.5,0,0,0,209.75,58c-.19-.08-.39-.15-.55-.23a.62.62,0,0,0-.19-.11c-1-.59-.35-.43-2.23-.44a.25.25,0,0,1,0-.17c0-.37,1-.58-2.43-1.58-1.46,0-2.87-.09-4.27-.15-2,0-1.06.53-2.16.68-.35.06-.23,0-1-.18-1.37-.17-2.42.71-3.48,1.46v-.56c-1.8.49-1.22,1-3.26,1.56.08,1-.5,1,1.76.33-.15,1.79-1.84,1.75-2.54,3.17-.35.68.5.32-.59.81-.82.34-1,.87-1.65,2-1.21-.38-.5-.87-1.75.21-1.89,1.72-4,1-2.9,6a6.21,6.21,0,0,0,.31.92c1,1.65,2.55,1.35,3.72.54q.83-.42,1.65-.9c.79.63.43,1,1,2,.31.62.66,1.29,1,1.92-.58.28-1.17.54-1.76.79.28-1.21-.07-1.64-.23-3.06-.32.13-.59.3-.86.4a.36.36,0,0,1-.16.11,4,4,0,0,1-.55.19c-.86.34-1.17.09-1.21,1.45a3.91,3.91,0,0,0,.07,1,10.55,10.55,0,0,1,.43,2.61c-1.41.73-3.45-.17-4.22,1.33s-.79,2.34-3.29,2.94l-.48-.86c.43-.67,1.22-.82.75-1.65-.87-1.58-.75.6-1.65-1.6s-.59-.94-1.22-2a.4.4,0,0,1-.07-.18,2,2,0,0,1-.12-.19c-.43-.9-.16-.75-1.21-1.15a11.91,11.91,0,0,1,1.25-2.51,19.89,19.89,0,0,1-2-.34c.47-.72,1-1.45,1.49-2.19-1.17,0-.59-.14-1.37.43s.15.34-1,.52c-.66.1-.47-.68-1.61,1.73-.27-.51-.08-.66-.19-1.2,0-.29.31-.08-.16-.32-.63-.32-1.14,1.39-1.65,2.61.71-.24.67-.49,1-1.41,0,.09.07.71.07.71v.21c0,1-.43.53.43,1.63a10.73,10.73,0,0,0-.5,1.09,2.37,2.37,0,0,0-1.81,0c-.71.34-.86.62-.71,1.48l-1.72,0V78.9c0,.36-.08-.62,0,.25,0,0,0,.11,0,.13v.11c.16.23.31.47.47.68-.43.28-.86.56-1.25.83.47,2.22.94,1.63,4.78.47.74-3.53.43-2.82,1.76-3.85v.86h.74c.16-.37.32-.73.51-1.11.16.68.31,1.35.47,2-.58,0-1.17-.05-1.72-.05a4.58,4.58,0,0,0,0,.83c.19.88,1.06.43,0,.88-.27.06-.55.15-.82.19.39.49.82,1,1.25,1.45-.47.11-.24.07-.47.26-.51.56-1,1.09-1.53,1.63a9.36,9.36,0,0,0,2-.24,3,3,0,0,0,.39-.11,1.42,1.42,0,0,1,.2,0,2.92,2.92,0,0,1,1.41-.37c1.09,0,1.29-.08,2.31-.17,1.8-.09.74-.15,2-.49-1.22,2.87-.27.49-2,2.42-2.2-.1.27-.59-3-.34.16.56.4.67,1,1.44-2-.07-.2-.49-3.53-.11v1.39a7.49,7.49,0,0,1,2.2.73c.5.38.43.59.9,1.26a2.13,2.13,0,0,0,.31.43c.79,1.2.08,2.84-.39,4.66-1-.13-6.19-.92-6.86-.72-.94.29-.19.22-1.92,1,.12,1.56.32.25.35,1.61.16,3.21-1.06,4.08-1.09,5.12,0,1.24.74-.45.51,3.06.9,0,1.8,0,2.73,0,.35,1.54,1.14,1.15,0,3.85-.74,1.61-1.41,1.21-2.58,2.2a4.13,4.13,0,0,0-1.17,1.74c-.63,1.47-.71,1-.59,2.53.19,2.72-3.13,3.76-3.8,4.13-1.09.57-.35.94-1.64,2.35-.12.09-.2.19-.27.25-.91,1-.59,1.65-1.14,2.66-.43.83-.9.64-1.57,2.39-1,2.72-2.2,2.95-.19,4.8-.35,1.72-.63.49-.19,2.16.39,1.48-.16,3.41-.63,5a10.49,10.49,0,0,1-1.18,2c.32.19.62.41,1,.58a9.65,9.65,0,0,1-.15,1.45c-.24,2.55.63.39.66,3.56,1.25-.09.74-.58,2.86,1.83.48.56.2.22.4.63.58,1.19.63,2.6.94,3.15a.21.21,0,0,1,.08.13,4.8,4.8,0,0,0,1.25.79,3.54,3.54,0,0,1,.71.58,2.62,2.62,0,0,0,.39.43,2.08,2.08,0,0,0,.43.37c1.68,1.33,3,3.6,4.62,2.68,4.83-2.77,4.16.59,8.12-1.33,2.89-1.41,3.21-1.54,6.5-1.57a10.66,10.66,0,0,1,1.09,2.44,7,7,0,0,0,.43.92,8.06,8.06,0,0,0,2.36-.17,4.1,4.1,0,0,1,.93-.21c.71.06.48-.09.71.66-.63.49-.66.28-.74,1.39H186c.08-.36.19-.72.31-1.11,1.6.45.19,5.48,0,6.68l-.79,0c.28.79.56,1.6.83,2.41a.36.36,0,0,1,.08.19c1.05,1.48,2.11,3,3.21,4.43.35.71.27,1.31,1.17,3.66,1.41,3.58-.43,1.8.9,5.1.71,1.75.47,2.26-.55,3.65s-.74,1.84-1.17,3.47a16.61,16.61,0,0,0-.59,3.81c-.08,1.06,1.88,5.07,2.47,6.38.9,1.91.9.94.94,3.68,0,1.63.11.95.35,2.06a22.33,22.33,0,0,1,.23,2.27,9.07,9.07,0,0,0,.9,2.48,1.55,1.55,0,0,1,0,.15c.35.68-.24-.25.19.34,1.22,1.67.82.88,1.57,3.08.27.83,1.33,2.31,1.17,3.23-.24,1.72-.74-.53-.35,1.29.11.73.24,1.43.39,2.12,2.28,1,1.14.79,2.94.1.86-.23,1.76-.49,2.66-.75,3.37-.25,4.67-.13,7-2.83.51-.56,1.06-1.14,1.61-1.69A4.24,4.24,0,0,0,212,213c1.06-1.27,1.17-2.58,2.31-3.66,0-.05.08-.09.11-.15,1.25-1.31,1-3.45,1.17-5.1a15,15,0,0,1,2.16-1.33c1-.59,1.21-.79,1.37-2.18a12.35,12.35,0,0,0-.79-5.4c.94-1.6,1.33-1,2.9-3.25s2.94-.88,4.66-4.35c.56-1.1.36-1.11.2-2.5v-5.38a1.57,1.57,0,0,1-.59-.38,5.67,5.67,0,0,1-.87-2.55c0-.39.16-1.3.16-1.73-.63-2.7-1.61-.11.51-5.27.79-1.93,2.07-3.13,3.1-4.82a7.12,7.12,0,0,1,1.14-1.48,39.38,39.38,0,0,1,3.87-3.59,19.52,19.52,0,0,0,3.14-4.77c.58-1.22,1-2.44,1.48-3.73s1.84-2.5,1.84-3.92c-.87-.37-.51-.45-.51-2.12-1.09,0-2.27.81-3.29.94l-1.17.26a9.76,9.76,0,0,1-1.88.58c-.9.1-1.8.25-2.66.38a8,8,0,0,0-1.25-1.91c.15-.34.31-.72.5-1.06a3.71,3.71,0,0,0,2-.3l3.33-1.44c.39-.21.11-.08.39-.16a1.86,1.86,0,0,0,.91-.34c.35-.26.19-.37.82-.76.82-.49,2.27-.51,3.1-1.21,1.21-1.07-.83-.86,1.6-1.78,3-1.14,2.62-.52,5.41-3.3.07-.71.15-1.41.23-2.14,1.1-.39,1.57-2.21,2-3.26a17.81,17.81,0,0,1-1.53-1.61c-.9-.82-2.43-.43-2.9-1.84-.11-.83-.23-1.69-.35-2.53l-.74,0a3.38,3.38,0,0,1-3.21,3,3.27,3.27,0,0,0-1.53.28c0-.08-.08-.23-.12-.19-.08-.22-.16-.43-.23-.66-.32-1.65.15-.83-.91-2.61-.27.43-.5.86-.74,1.29A2.05,2.05,0,0,1,237,124c-.11-1.46-1.91-2.46-2.66-4-.47-1.07,0-1,.47-1.8.24-.79,0-.21.32-.28a2.37,2.37,0,0,0,.51.13c.82.34,1.06,1,1.45,1.8.55,1.15.47,1.21,1.61,1.82,3.76,2,1.06,2.16,5.88,1.14.24.7.51,1.43.78,2.1a38.39,38.39,0,0,0,5.52,1.37,13.71,13.71,0,0,0,1.75.06A111.55,111.55,0,0,0,218.74,60Zm-.39-.37c.22.67.19.23.32.31ZM36.41,135.94c0,.24.55.45.35.05C36.65,135.8,36.29,135.37,36.41,135.94Zm55.87,10.65c.24.28.9-.39.27-.15C92.55,146.44,91.84,146.16,92.28,146.59Zm96.19-72.77c0,.34.55.66.39,0s.63,0-.11-.09c-.32,0-.27-.49-.27.06ZM86.52,144.06c0,.32.51.6.4,0s.62,0-.12-.05c-.31-.06-.27-.47-.27.05Zm103-38.5c0,.35.51.64.4,0s.63,0-.12-.06c-.31,0-.27-.49-.27.06Zm-116,28.62c0,.28.56.54.4,0s.62,0-.12-.08c-.31,0-.27-.43-.27.08ZM81,128c0,.28.55.54.39,0s.63,0-.11-.08c-.31,0-.27-.43-.27.1Zm13.52-50.5c0,.32.55.52.4-.06s.63-.09-.12-.06c-.31,0-.27-.41-.27.13Zm112,29.22c0,.09.27.07.31.05s.43.64.12-.06c0,0-.48-.54-.43,0ZM90,135.73c0,.67.4.07.16,0S90,135.16,90,135.73Zm1,93.2a3.39,3.39,0,0,0-.51.21,2.6,2.6,0,0,1,.51-.21,7.58,7.58,0,0,0,.74.62,7.38,7.38,0,0,0-.47,1.67c-.11.34-.19.73-.27,1.1l2,.29c-.23.28-.43.56-.63.82-.63.9.12,2,.71,3.06a.25.25,0,0,0,.08.15c.16.3.32.6.47.9s.12.26.27.56c.35.67.16.22.43.68,1.68,2.83.24,1.1,1.89,2.32.42.32.35.21.35.57a.27.27,0,0,0-.08.17c.86,1.33,2.74,2.14,4,3.15a.56.56,0,0,1,.16.13,15.18,15.18,0,0,0,1.71,1.11c.82.31,1.65.62,2.48.9l.75-.23a1.25,1.25,0,0,0,.07.23.94.94,0,0,0,.11.32l.66.23a4.26,4.26,0,0,0-.1-.61,5.57,5.57,0,0,0,1.76-.49c-.55-.9-.79-.53-1.25-.75a10.49,10.49,0,0,1-2.82-2.06c-.27-.38-.55-.77-.79-1.17-.74-1.35-1.41-1.71-2.15-3.38,1.69-.9.71-.28.9-1.91.43-.56.86-1.13,1.33-1.67,0-.09-.08-.25-.08-.22a2.18,2.18,0,0,0-1.17-1.34c-.59-.33-1.17-.71-1.76-1.07v-1.59h1.53c-.11-.9-.19-1.79-.27-2.72.51-.16,1-.37,1.53-.53-.39-1.73-.23-1-1.49-1.59-.93-.44-.23.2-.74-.64l-.11-.19a6.63,6.63,0,0,1-.43-.94c3.6,1.45,3.17,1,3-2.19,4.38.64,4.7-.39,5.25-3.26-.59-1-.55-.38-.86-1.05a9.71,9.71,0,0,1-.31-1.05,1.46,1.46,0,0,0-.64-.75,5.5,5.5,0,0,1-.42-.39c1.06.15,2.46,1.34,3.84,1,.9-.19,1.14-.9,1.49-1.65a19,19,0,0,1,1.13-2.42c2.2-3.23.86-1.38,2-4,.48-1.11,1.3-1.49,1.26-2.84,0-1.76-1.26-2.5.7-4.43,1.06-1,1.33-.88,2.63-.77,0-1.82,1-1.29,3.76-1.41.35-.9.35-.81,1.25-1.26,0-2.19,1.1-3,1.26-5.09s.9-3.57.63-5.54a12.08,12.08,0,0,1-.16-2.12c.08-1.31.08-.95.71-1.67.9-1,1-2.12,2.43-3.81a10.15,10.15,0,0,0,.9-1.41c-.08-2.37-.16-4.75-.23-7.17-3.58-.13-3.34-3.12-5.84-3.73-1-.23-1.69.22-3.06-.34-2.39-.94-1.69.67-2.89-2.31-.9.34-.67.43-1.46,0a30,30,0,0,0-2.86-1c-1.45-.72,1,.61-.31-.19a.75.75,0,0,1-.27-.22,5.73,5.73,0,0,1-1.61-1.28c-.16-.24.07-.48.11-.73.11-1.16-1.06-1.75-1.33-3.36-.39-2.1-.19-1.22-1.37-2.36s.82,1-.28-.28c-2.94-3.31-5.44-.15-7.6-3.59-1-1.65-1.17-1.91-3.06-2.38.4-1.86.24-1.26-2.27-2.67.39-.15.82-.35,1.25-.52-.71-.3-.66.15-1.72,0-1.49-.19-1.1-2.16-2,.81-2.47,0,0-.68-4.23-.49-.27-.49-.16-.75-.63-1.09L87,144.63c-1.17-.41-.62.56-1,1-.51.64-1.14.24-1.73,0,.43-.26.87-.52,1.3-.8a5.54,5.54,0,0,1-.55-.75c-1.46.36-1.26,1.21-3.45,1.67a.24.24,0,0,0-.16,0,1.42,1.42,0,0,0-.16,0,.58.58,0,0,0-.15.06c-2.16.71-1.26.77-2,2.27-.32.66,0,0-.32.41a1.09,1.09,0,0,1-.11.1,3.56,3.56,0,0,1-1.64.83A2.54,2.54,0,0,0,74.68,148a8.11,8.11,0,0,0-2.43,1.07,4.25,4.25,0,0,1-.59-.41.81.81,0,0,0-.11-.13s-.12-.09-.16-.14c-.55-.56-1.06-1.09-1.57-1.67a2,2,0,0,1-.12-1.69c.19-1,.16-1.06.35-2.14s1.22-2.08.27-3l-.58-.43c-.59-.38-.2-.23-.83-.36s-.63,0-1-.17c-.2-.19-.4-.4-.59-.61a3.2,3.2,0,0,0-.27.52v-.49c-.75.19-.35,0-.75.52a3.7,3.7,0,0,1,.75,0c-.94.18-1.84.39-2.74.58.19-.77.43-1.5.66-2.3a.48.48,0,0,1,.08-.19A8.24,8.24,0,0,0,66.33,134c.59-1.93-.08-.22.71-1.14.4-.45.27-.39.47-1.67a8.73,8.73,0,0,0-4.62.83c-1.61,1.3.63,2.38-3,3.36-2.94.77-2,.83-3.48.13-.67-.32-.59,0-1-.71s-.67-1.41-1-2.12c-.28-1.26.15.09,0-1s-.35-.1-.31-1.17c0-.19.47-1.84.58-2.27a14.53,14.53,0,0,1,1.1-2.07c1.13-2.31-1.1-1.84,2.42-4,1.57-1,2.47-1.91,4.46-1.6,3.14.47.12.44,4.39.36-.19-.66,0-.21-.24-.75.47-.17.51-.43,1.1-.72,1.53-.76,1.8-.3,3.4.34l2-.86a5.06,5.06,0,0,0,1,1.71,3.35,3.35,0,0,0-.28,3,3,3,0,0,0,.71,1.26c.2.49.4,1,.59,1.41-.43.2-.87.36-1.25.56,3.18-.19,3.29-3.49,2.94-6-.39-2.83-1.06-3.62,2.5-6,1.57-1.06-.11-.42,2.23-1.69,1.14-.62-.11-.32,1.92-1.26.79-.38.47-.23.9-.66.59-.56.82.41,1.22-.86.19-.64,0-1.41.16-2.19.39-1.39,1.75-1.28,1.91-3.08,1.73-.66,1-1.88,3.18-2.72,2.86-1.14.35-1.11,3.84-1.14.59-1,.47-.62.47-1.61-.27.11-.5.21-.74.33.19-2.55,1.84-2.51,3.76-3.45.9-.47.63-.58,2-.67,0,3.23,1.14.88,3.8-.19.9-.4,1.45-.64,2.39-1.11l.5-.26c.08,0,.12-.08.16-.1l.19-.11c.48-.32,1-.6,1.49-.91-.11-.58-.19-1.22-.27-1.87-1.3.47-.67,1-2,1.5v-.54l-1.48.09c-.48-.83,0-.47-.75-1-.19.71.08.28-.5.54.07-1,1.05-2.08,1.75-3.3-1.8-.8-1.45-.2-3.25,0,1.06-.54,2.15-1.07,3.25-1.59v.11a.75.75,0,0,0,0,.15c.39,1.28,1,1,2.7,1.14-.23-1-.31-.77-1.56-1.19A4.76,4.76,0,0,1,106,87c4.51-.34,3.29.71,6.58-1.77.63-.48.74-.36,2-.54a33.93,33.93,0,0,0-2.35,2.83c-.94,1.17-.86.77-1.38,1.33a3.51,3.51,0,0,0-.79,1.88c1.14-.06,2.31-.17,3.49-.28-.27.47-.51.95-.75,1.41,1.49-.52,1-.15,2-1.26,1.53,0,.47.06.66.45s.24.58.35.83a2,2,0,0,0,1.41-1c.83-1.14.24-2.74-.15-4.5-.51.24-1,.47-1.54.68-.11-.34.48-.25-.47-.77v-.53c1.8-.21.51.1,1.14-1.29.43-1,0,.56.35-.75.74-.37.11-.06.19-1,.08-.58.19-1.19.32-1.8-1.18-.72-.75.06-1.26-2-1.29.4-1.83-.51-2.78-1.61,1-1.73.27-2.87-.47-6.14-.59.28-1.61,1.73-2.2,2.18q-1.41.79-2.82,1.56a5.64,5.64,0,0,1-.5-.77c.47-1,1.25-2,1.25-3.06a5.89,5.89,0,0,1-1.25,0c-1,0-.43,0-.67-.4-.35-.8-.08-.38-1.33-1.71-.35.06-.7.08-1,.13l-.48.85c-2.46-1.39-4,1.2-5,2.4.16.4.31.83.47,1.25-.79.72-1.56,1.45-2.31,2.16.35.29.71.57,1.06.87-.51,1.17,0,2.49-3.45,4.13-2.51,1.26-1.64-.1-2.78,4.8-1.53.86.86-1.17-2.28,1.35-.19-.56-.35-1.16-.5-1.75.66-.41.74.64,1.13-.3s.08-.47-.19-.65c0,0-.11,0-.11-.06l-.16,0a2.3,2.3,0,0,1-.39,0c.31-.88.63-1.8,1-2.72-1.81-.13-2.43.38-4.16-.54s-1-1.54-4.11-1.11c.07-.66.15-1.37.27-2-.35,0-.71.08-1,.14.08-1.05.4-1.13,1.06-1.88a15.58,15.58,0,0,1,3.13-2.65c.56-.37,1.1-.75,1.65-1.14l.11,0a10.34,10.34,0,0,0,2.16-1.38c2.51-2.16.71.58,6.15-4-.94,1-1.84,2.07-2.74,3.11,1.29-.21,1.22.08,1.76.47a8.85,8.85,0,0,1,3.25-1.78c.67,1.69,1.89-.3,2.28-.77-1.84,0,.74.34-2.28-1.07.35-.68.59-.29,1-.66,1-1-.58.83.16-.3.35-.52.27-.32.55-.47,0,0,.12,0,.16-.06s.19-.09.32-.18c1.21-.72,2-.86,2.35-1.52.16-.26,0-.13.24-.58s-.48-.24,1.29-1.18c-.11-.52-.19-1-.27-1.54,1.57-.18,1.09.1,2.28.24-.2.29-.35.57-.51.85.74-.43,1.49-.87,2.23-1.33.08.45.16.9.27,1.31-.59.32-1.17.66-1.76,1v1.1c3.29-.41.63-.83,3.29-1.26.67-.09.67-.05,1.33-.67,0,.39-.08.75-.11,1.11-.82.15-.51.09-1.14.49-3.64,2.4-.35,1.35-2.35,2.18a9.69,9.69,0,0,1-2.36.24c-1,.09-.08-.25-2.15,1.2.16.68,0,.23.24.77L102,68c.16,0,.31,0,.51,0a2.21,2.21,0,0,0-.24.83l.74-.1c-.19-.73,0-.39-.5-.73v-.53c.9.38,1.91-.18,3.13-.47s1.09-.17,1.64,1.26-.15.29,2.39,1.2c.86.14,1.73.29,2.59.4v.53c.32,0,.67-.06,1-.1V69.1c-.74.33-.39.18-1,.67,0-.3.12-.67.2-1l-1-1c.9.32,1.8.68,2.74,1,1.25-2.17,1-1.29,1-3.65-.51,0-1,0-1.49-.1V63.92l1.25-.68c.47.58,1,1.14,1.49,1.71.85-.34.39-.25,1-.68,0,0,.12-.09.15-.13a9.43,9.43,0,0,0,2.63-2.1c-.59-1.17.16-.56-.94-.83-.19-.05-.23.06-.5-.11a.37.37,0,0,1-.16-.17c-1.22-1.22-.24-.28-1.57-.77-.39-.11-.74-.19-1.09-.3.51-.21,1-.47,1.53-.73-.35-1.67,0-1.83-1.57-2.22-.74-.17-.11.15-.66-.15a.5.5,0,0,1-.16-.22c-1-1.15,1.06.56-.24-.32-.55.1-1.09.15-1.64.21-.51-.81-1-1.67-1.49-2.49-1.8.22-3,.24-4,.39-.48.06-1.33.44-1.81.52a2,2,0,0,1-.47-.09l-.16,0c-3.6-.66-5.72,2.68-7.32,4.71.82,1.22,1.14.95,2.5.77-1.6,1.81-.11,1.44-3.25,2.51l.23-.82c-.15-.1-.51-.34-.55-.38-.74-.11-1.49-.17-2.2-.26,1.1-1.21.43-.62.67-2a1.85,1.85,0,0,1,1.37-1.84A5.93,5.93,0,0,0,100,56c.31-.3.66-.61,1-.92-.79.1-1.53.19-2.27.3,0-.09.11-.28.11-.26S99,55,99,54.93c.27-.43.55-.86.85-1.35s-.85,0,1.61-1.18c-.35.77-.66,1.53-1,2.25,1.57-.16,3.14-.34,4.7-.51a9.82,9.82,0,0,0,1.1-.11c1.53-.22,5-.15,5.72-2.27l3.1-2.31c.74-.77,2.86-1.17,4-1.82s.71-.78,1.54-1.28c2.15-.56,4.35-1.16,6.54-1.72.19.26.4.47.59.71-1.49.9-6.78,1.09-7.25,2.07s.82.21-.19.64c-.19.24-.39.48-.59.71.4.13.83.24,1.25.34.83.52-.11.33.75.8,1.8,1.07,5.44-2.25,8.07.73.15.17.31.36.47.53-.51.19-.24,0-.43.28-.63,1,.86-.52.08,1.26-.39.81-.79,1.63-1.17,2.43a9.69,9.69,0,0,0,1.25.44c-1.17.45-1.22.92-1.73,2.06.79.25.91,1,3-.22-.59,2.57-.51-.83-3.45,2.78-.58.76-.31.41-.39.76a5.52,5.52,0,0,0-.19.81c-.2.75-.2.68,0,1.29.47,1.54,0,1.49.11,2.48.11.71.27.49.63,1.65,0,0,0,.1,0,.15.32.87.67,1.76,1,2.6,1.64-.13,1.14-.56,2.66.52a.66.66,0,0,1,.16.11c2.31,1.56,3.05-2.38,5.06-4.27a6.81,6.81,0,0,0,1-1c.42-.66.9-1.35,1.37-2.06.9-1.26,2.63-.83,4-1.48a9.53,9.53,0,0,0,2.47-1.34c4.08-3.08.93-1.26,7.4-2.72a19.67,19.67,0,0,0,3.56-1.44l.16-.06.59-.21.2-.09c.35-.22.74-.43,1.14-.66s.27-.18.5-.63c.59-1.28-.19-1.11.08-2.1.35-1.3.67-1.18,1.06-1.37s.59-.25.9-.39c.08,0,.12-.08.16-.1l.16-.15s.08-.09.11-.1c.35-.15.71-.33,1.1-.52-.16-.47-.24,0-.28-1.11.67-.09,1.33-.19,2-.33-.47-.13-.94-.28-1.37-.41-.55-.36-.35-.58-1.41-1.21l1.53,0V48l.47,0c.28-1.26.51-.9.79-2,.75-.21.55,0,.75-.83-.67.19-.2,0-.75.28v-.83c-.27,0-.55,0-.79,0,.75-.47,1.54-.92,2.31-1.41l.16-.09c1.69-.66,3.37-1.35,5.06-2-4.27-1.09-2.31.77-6.27-.49-.35.28-.66.58-1,.86V40.12c-3.09-.24-3.25-.77-7.32-.71h-.19c-2.12.07-9.76.39-11.6,1.12-1.57.66,1.22-.58-.35.17s-1.06-.09-2.9.62c-.78.06-1.56.15-2.35.18-3-.41-3.84,1.26-5.64.36-.59-.08-1.18-.23-1.73-.36a14.93,14.93,0,0,0-2,.06c-3.49.25-7.49.32-11,1.33s-.12.23-3.49.77c-1.8.49-3.6,1-5.41,1.48-.63.43-.35,0,.4,1.17-3,.37,1.61-2.55-7,1.54.16.88,0,.15.27.73.43.79.63.66,1.72,1.11-.07,0-.15,0-.15.15s-.35.1-.63.66c-.16.26-.12.2,0,.64a3.93,3.93,0,0,1-2.74.09c.5-.13,1-.3,1.53-.45-.19-.77,0-.4-.51-.75a1.53,1.53,0,0,0-1.57-.77c-.42.58-.82,1.14-1.21,1.72.51.08,1,.21,1.53.29-2.42.34-2.5,0-2.66.95s1.64.56-1.61,1.24c.51-.53.23,0,.74-1.15a16.07,16.07,0,0,0-5,.85c-.43-1.15.19.33.35-.71a8.19,8.19,0,0,0-.82-.44c-.79,1.84.78-.67-1,2.53.9.44.59.09,1.57.41,1.25.43,2.23-.19,3.44-.86a2,2,0,0,1,.12,1.14c-.55,1.33-.16-.8-2.28,2.5a2.53,2.53,0,0,1-1.37,1.2c.39-.53.79-1.07,1.22-1.63,1.68-2.8-2.66-.68-2.71-.66-.35.51-.7,1-1,1.5-1.65.14-.43-1.06-2.52,1,1.14.21,1.06.44,1.54,1.26,1.25-.26,1.09-.45,2.23-.71-.19.29-.35.59-.51.85l-.11.15c-.32.54-.59,1.1-.86,1.65-1.22-.24.19-.22-.87-.3-1.64-.09,0,.52-3.4,1.33.23-.47.47-.92.74-1.41-1.06.15-.78.15-2-.66,1.33-.6.23-.6,1.45-1.88,1-1.16.08.34,1.8-1.84-.74-.21-.93-.2-2.15.53-.86.64-1.72,1.31-2.59,2-.59-.17-1.17-.32-1.76-.45-.32.86.24.52-.9.43-1.33-.1-2-.28-2.58-1.28-2,.38-5.49.47-6.58,1.49-.59.54.31.13-1,1a22.48,22.48,0,0,0-3.72,3l1,.71a18.44,18.44,0,0,0,5-2.38c-.9,2.35-.43.4-.71,1.9-.08.39,0,.05-.27.54-.74,1-.47.34-.27,1.26a7,7,0,0,1-3.29.1,1.11,1.11,0,0,0-.35-.08c-1.38-.11-1.49.35-2.59.72.08-.25.16-.51.23-.79-.85.56-1.68,1.06-2.5,1.61V66.36c-1.06.52-.43.49-1.37,1-1.46.66-.16-.43-3.29,1s-2.38.84-2.7.91a112.09,112.09,0,0,0-23.66,47.93l1,.31a8.67,8.67,0,0,0-.31.9c-.16.15-.32.3-.47.47.31.14.27.09.74.14-.19-.57,0-.18-.27-.6l.35-.19c.39-.18.08-.28.51-.15.66.21.11,3.7.66,4.51.39.52.79,1.07,1.22,1.62-.24.19-.48.34-.71.51-1.41-.3.23.06-.47-.38-.12-.11.58-.43-.24-.09-.32.15-.39,1,.9,1.79.59.37.67,0,1.22.43s.15,1.61.08,2.31c.19.09.66.26.78.34.83.43,1.06,1.2,1.46,2l1.25-.49a4.21,4.21,0,0,0-.27-1.2c-.16-.52-.32-.43-1-.52.77-1.45-1.1-3.3-1.26-4.58v-1.76c-.78-.25-1.13.05-1.13-.9,0-.77,0-1.56.78-1.58,1.57,0,.79,2.4.63,3.36a8.14,8.14,0,0,0,1,.49c.4.49.78,1,1.18,1.43.74.8.58,1,.58,2.1,1.65.54.56.15,1.65,1.29s-.9-.86.27.19c1,.95,2.28,2.57,1.52,4s-.27,1.79.95,2.56.23.73,1.64,1.2c1.68.56,3.88,1.87,6.19,2.8s3.45-1.45,5.29.67c.35.36.47.51.82.9a7.41,7.41,0,0,1,.74.75c.83.67,1.3.39,2.24.75,4.46,1.65,1.91,1,4.74,3.15v2.21c.31.09.66.19,1,.32.51.11.32-.19.91.22,1.56,1.05-.51,1.38,3.09,1.87-.08.43-.15.85-.23,1.26,0,0,.11-.15.15-.09a2.32,2.32,0,0,1,.32-.17c.66-.17.74.28,2,.09-.16-1.78-.47-1.14,1.25-2.2.35.87-.35.36.19,1.06l.2.24c.07,0,.19.24.23.3a9.42,9.42,0,0,1,.59,1c.63,1.09.94,5.14-.47,6.23a8.2,8.2,0,0,0-.75.68c0,.06-.16.24-.19.3a1.32,1.32,0,0,1-.86,1.2c-.51.21-.66-.06-.9.9-.24.6-.47,1.2-.71,1.78-.35.94.11-.62-.11.29-.08.71-.16,1.4-.24,2.08.32.25.63.53,1,.79,0,.07-.08.07-.08.15a1.14,1.14,0,0,0-.19.3s-.08.11-.08.15a9.39,9.39,0,0,0-.66.81c0,.07,0,.11-.08.18s-.05.1-.08.15a4.48,4.48,0,0,0,.94,3.23c2,1.73,2.94,4.6,4.12,7,.27.58.55,1.15.86,1.71a18.12,18.12,0,0,1,1,1.59c.39,1.14-.47.47.51,1.82,1.8,2.4,4.38,3.12,6.18,5.16a7.24,7.24,0,0,0,.67.69,4.64,4.64,0,0,1,1.37,3.1,36.22,36.22,0,0,1,.16,4.86c0,1.41.39,3,.39,5a23.77,23.77,0,0,1,0,2.53c-.24,2.07.08.68.24,2.14.11,1.26-.48.39.07,2a11.45,11.45,0,0,1,.67,2.27,13.63,13.63,0,0,1-.39,6.42c-.16.54-.51-.21.35,1.88a12.54,12.54,0,0,1,.74,1.87,15.84,15.84,0,0,0,.43,3.17,15.29,15.29,0,0,1,.19,3.34c.51-.09,1-.22,1.53-.3-.12-.68-.19-1.39-.27-2.12.62.88.55,1.65.75,3.26-.51-.83.47-.3-1.26-1,.24,1,.24.56,0,1.54Z"/><circle class="cls-3" cx="141.37" cy="141.37" r="141.33"/><path class="cls-4" d="M141.61,253.33a111.53,111.53,0,0,1-35.23-5.65c-25.78-9.6-29.76-64.22-8.83-122.25S156.43,27.83,182.41,37c.94.37,1.88.75,2.81,1.14A111.54,111.54,0,0,1,218,59.36h0c-2.84-26.23-12.54-45.17-28.64-51C155.75-3.73,107.05,46,80.58,119.41S59.88,262.18,93.47,274.29c16.15,5.82,35.79-2.64,54.77-21.16Q144.94,253.33,141.61,253.33Z"/><path class="cls-5" d="M193,240.87c-6.59,14.72-16,24.35-27.66,26.56C133.52,273.5,97,222,83.7,152.35s1.82-131,33.67-137c11.6-2.21,23.81,3.21,35.31,14.36"/><path class="cls-5" d="M171.34,249.33c-12,17.5-26.13,27.41-40.62,26.26C96.81,272.9,74.09,210.63,80,136.5S118.11,4.47,152,7.16C166.48,8.3,178.91,20.29,188,39.4"/>
	<path class="cls-5" d="M145.62,255.62c-18.16,16.78-36.74,24.23-52.15,18.67C59.88,262.18,54.1,192.84,80.58,119.41S155.75-3.73,189.34,8.38c15.53,5.6,25.12,23.44,28.32,48.26"/>
	<path class="cls-6-no-anima" d="M78.9,105.73c-.24-21.67,2.53-41.09,7.85-56.37,6.59-18.92,17.09-31.47,30.62-34,11.6-2.21,23.81,3.21,35.31,14.36"/>
	<path class="cls-7-no-anima" d="M181.56,258.39a30.87,30.87,0,0,1-16.19,9C133.52,273.5,97,222,83.7,152.35c-.19-1-.37-2-.55-2.94"/>
	<path class="cls-8-no-anima" d="M162.54,260.4c-9.85,10.49-20.75,16.06-31.82,15.19C96.81,272.9,74.09,210.63,80,136.5S118.11,4.47,152,7.16C166.48,8.3,178.91,20.29,188,39.4"/>
	<path class="cls-9-no-anima" d="M145.62,255.62c-18.16,16.78-36.74,24.23-52.15,18.67C59.88,262.18,54.1,192.84,80.58,119.41S155.75-3.73,189.34,8.38c15.53,5.6,25.12,23.44,28.32,48.26"/>
	<path class="cls-6" d="M78.9,105.73c-.24-21.67,2.53-41.09,7.85-56.37,6.59-18.92,17.09-31.47,30.62-34,11.6-2.21,23.81,3.21,35.31,14.36"/>
	<path class="cls-7" d="M181.56,258.39a30.87,30.87,0,0,1-16.19,9C133.52,273.5,97,222,83.7,152.35c-.19-1-.37-2-.55-2.94"/>
	<path class="cls-8" d="M162.54,260.4c-9.85,10.49-20.75,16.06-31.82,15.19C96.81,272.9,74.09,210.63,80,136.5S118.11,4.47,152,7.16C166.48,8.3,178.91,20.29,188,39.4"/>
	<path class="cls-9" d="M145.62,255.62c-18.16,16.78-36.74,24.23-52.15,18.67C59.88,262.18,54.1,192.84,80.58,119.41S155.75-3.73,189.34,8.38c15.53,5.6,25.12,23.44,28.32,48.26"/>
</g>
</g>
</svg>
