<?xml version="1.0" encoding="utf-8"?>
<!-- Generator: Adobe Illustrator 27.0.0, SVG Export Plug-In . SVG Version: 6.00 Build 0)  -->
<svg version="1.1" id="Layer_1" xmlns="http://www.w3.org/2000/svg" xmlns:xlink="http://www.w3.org/1999/xlink" x="0px" y="0px"
	 viewBox="0 0 800 800" style="enable-background:new 0 0 800 800;" xml:space="preserve">
<style type="text/css">
	.st0{fill:none;stroke:#009DB1;stroke-width:10;stroke-miterlimit:10;}
	.st1{fill:#009DA5;}
</style>
<line class="st0" x1="257.2" y1="521.7" x2="643.7" y2="521.7"/>
<polyline class="st0" points="157.2,286.4 257.2,386.4 157.2,486.4 "/>
<path class="st1" d="M450,494.2c-59.2,0-107.2-48-107.2-107.2s48-107.2,107.2-107.2c59.2,0,107.2,48,107.2,107.2c0,0,0,0,0,0
	C557.1,446.2,509.2,494.1,450,494.2z M450,290c-53.6,0-97,43.4-97,97s43.4,97,97,97s97-43.4,97-97c0-8-1-15.9-2.8-23.3
	C533.7,321.4,495.5,290.1,450,290z"/>
</svg>
