<?xml version="1.0" encoding="utf-8"?>
<!-- Generator: Adobe Illustrator 27.0.0, SVG Export Plug-In . SVG Version: 6.00 Build 0)  -->
<svg version="1.1" id="Layer_1" xmlns="http://www.w3.org/2000/svg" xmlns:xlink="http://www.w3.org/1999/xlink" x="0px" y="0px"
	 viewBox="0 0 800 800" style="enable-background:new 0 0 800 800;" xml:space="preserve">
<style type="text/css">
	.st0{fill:none;stroke:#009DB1;stroke-width:10;stroke-miterlimit:10;}
</style>
<g>
	<path class="st0" d="M268.7,454.8c0,0,240.6-241.2,256.1-256.8c23.3-23.3,116.6-38.9,116.6-38.9s-15.5,93.2-38.9,116.6
		C571.4,306.8,346,532.2,346,532.2L268.7,454.8z"/>
	<line class="st0" x1="299.7" y1="423.5" x2="377.2" y2="501.1"/>
	<path class="st0" d="M462.6,415.6c0,15.5,0,77.7-7.8,101c-4.9,14.8-20.4,36-31.1,46.6C393.1,593.9,346,641,346,641l14.4-123.2"/>
	<path class="st0" d="M384.9,337.9c-15.5,0-78.4-0.7-101.7,7.1c-14.8,4.9-35.3,21.1-46,31.7c-30.6,30.6-77.7,77.7-77.7,77.7
		l124-15.2"/>
	<path class="st0" d="M299.4,532.2c15.6,15.5,9.1,37.6-7.8,54.4c-21.5,21.4-124.3,46.9-124.3,46.9s25.2-103.2,46.6-124.7
		c17.1-17.1,38.9-23.3,54.4-7.8"/>
</g>
</svg>
