<svg xmlns="http://www.w3.org/2000/svg" viewBox="0 0 214.33 214.33"><title>Untitled-5</title><path d="M115.12,58.77c-10.35,0-21.44,4.08-28.73,14.59H86.09A14.2,14.2,0,0,0,71.89,59.15H71.46v97A16,16,0,0,0,87.4,172.08v-42H87.7c3.06,5.1,11.52,13.71,28.44,13.71,25.52,0,40.84-21,40.84-41.42C157,80.8,142.54,58.77,115.12,58.77ZM114.53,130c-15.31,0-27.42-12.4-27.42-28.73,0-14.88,11.09-28.59,27-28.59,16.48,0,27.71,14.44,27.71,28.88C141.81,118.57,128.83,130,114.53,130Z" fill="#5b5d62"/><path d="M107.17,214.33A107.17,107.17,0,1,1,214.33,107.17,107.29,107.29,0,0,1,107.17,214.33Zm0-204.12a97,97,0,1,0,97,97A97.07,97.07,0,0,0,107.17,10.21Z" fill="#009da5"/></svg>